# xmcd
#
# Track frame offsets: 
#        150
#        26135
#        47855
#        78732
#        104347
#        128507
#        144497
#        161930
#        178442
#        212057
#        233262
#        259150
#
# Disc length: 3724 seconds
#
# Revision: 3
# Processed by: cddbd v1.5.2PL0 Copyright (c) Steve Scherf et al.
# Submitted via: ExactAudioCopyFreeDBPlugin 1.0
#
DISCID=ab0e8a0c
DTITLE=MIGHTY SAM McCLAIN - Journey
DYEAR=1998
DGENRE=Blues
TTITLE0=I'm a Man
TTITLE1=Thank You
TTITLE2=Change Is Gonna Come
TTITLE3=New Man In Town
TTITLE4=No More Tears
TTITLE5=Mr. So and So
TTITLE6=Time Is Running Out
TTITLE7=I'm Yours
TTITLE8=Other Side Of The Tracks
TTITLE9=Prove It To Me
TTITLE10=Hanging On The Cross
TTITLE11=Somebody Help Me
EXTD=
EXTT0=
EXTT1=
EXTT2=
EXTT3=
EXTT4=
EXTT5=
EXTT6=
EXTT7=
EXTT8=
EXTT9=
EXTT10=
EXTT11=
PLAYORDER=
